<svg width="25" height="24" viewBox="0 0 25 24" fill="none" xmlns="http://www.w3.org/2000/svg">
<path fill-rule="evenodd" clip-rule="evenodd" d="M20.0195 19.3916C19.0035 16.1786 16.2735 14.3376 12.5265 14.3376H12.4995C8.74255 14.3166 5.99855 16.1706 4.98055 19.3916L4.86255 19.7656L5.19655 19.9696C7.15455 21.1636 9.59655 21.7686 12.4525 21.7686C12.4845 21.7686 12.5165 21.7686 12.5475 21.7686C15.4435 21.7686 17.8175 21.1796 19.8035 19.9696L20.1375 19.7656L20.0195 19.3916Z" fill="#FF8C00"/>
<path fill-rule="evenodd" clip-rule="evenodd" d="M12.5001 12.1094C15.2231 12.1094 17.4391 9.89442 17.4391 7.17142C17.4391 4.44742 15.2231 2.23242 12.5001 2.23242C9.77707 2.23242 7.56207 4.44742 7.56207 7.17142C7.56207 9.89442 9.77707 12.1094 12.5001 12.1094Z" fill="#FF8C00"/>
</svg>
