<svg width="25" height="24" viewBox="0 0 25 24" fill="none" xmlns="http://www.w3.org/2000/svg">
<path d="M21.495 6.64697C21.495 8.65831 19.8645 10.2888 17.8532 10.2888C15.8418 10.2888 14.2113 8.65831 14.2113 6.64697C14.2113 4.63564 15.8418 3.00513 17.8532 3.00513C19.8645 3.00513 21.495 4.63564 21.495 6.64697Z" fill="#FF8C00"/>
<path d="M10.7888 6.64697C10.7888 8.65831 9.15831 10.2888 7.14697 10.2888C5.13564 10.2888 3.50513 8.65831 3.50513 6.64697C3.50513 4.63564 5.13564 3.00513 7.14697 3.00513C9.15831 3.00513 10.7888 4.63564 10.7888 6.64697Z" fill="#FF8C00"/>
<path d="M21.495 17.3532C21.495 19.3645 19.8645 20.9951 17.8532 20.9951C15.8418 20.9951 14.2113 19.3645 14.2113 17.3532C14.2113 15.3419 15.8418 13.7114 17.8532 13.7114C19.8645 13.7114 21.495 15.3419 21.495 17.3532Z" fill="#FF8C00"/>
<path d="M10.7888 17.3532C10.7888 19.3645 9.15831 20.9951 7.14697 20.9951C5.13564 20.9951 3.50513 19.3645 3.50513 17.3532C3.50513 15.3419 5.13564 13.7114 7.14697 13.7114C9.15831 13.7114 10.7888 15.3419 10.7888 17.3532Z" fill="#FF8C00"/>
</svg>
