<svg width="93" height="92" viewBox="0 0 93 92" fill="none" xmlns="http://www.w3.org/2000/svg">
<g filter="url(#filter0_dd_140_4012)">
<rect x="15" y="8" width="63.8491" height="63" rx="31.5" fill="white"/>
<path fill-rule="evenodd" clip-rule="evenodd" d="M54.2324 21.0499C55.4792 21.3558 55.7282 21.6027 56.0325 22.8503C56.3386 21.6027 56.5858 21.3484 57.8362 21.0499C56.5895 20.744 56.3423 20.4971 56.0362 19.2495C55.7319 20.4971 55.4829 20.744 54.2361 21.0499" fill="#F5C26B"/>
<path fill-rule="evenodd" clip-rule="evenodd" d="M51.9219 18.3202C52.56 18.4768 52.6873 18.604 52.844 19.2416C53.0008 18.6021 53.1281 18.475 53.7662 18.3202C53.1281 18.1635 53.0008 18.0382 52.844 17.3988C52.6873 18.0382 52.56 18.1635 51.9219 18.3202Z" fill="#F2547D"/>
<path fill-rule="evenodd" clip-rule="evenodd" d="M56.9141 18.3204C57.8178 18.5452 57.9985 18.7276 58.218 19.6472C58.4393 18.7258 58.6201 18.5415 59.5219 18.3204C58.6108 18.1011 58.4301 17.9168 58.2051 16.9955C57.9875 17.9168 57.8086 18.1011 56.9141 18.3204Z" fill="#7FD1DE" fill-opacity="0.5"/>
<path fill-rule="evenodd" clip-rule="evenodd" d="M46.5246 54.7015C46.0092 54.7015 45.5016 54.5656 45.0541 54.3087L42.8978 53.0633H40.4088C39.3611 53.0633 38.3848 52.4984 37.8606 51.5937L36.616 49.4347L34.4597 48.1902C33.5532 47.6694 32.9892 46.6923 32.9892 45.6437V43.1529L31.7447 40.9975C31.2204 40.0875 31.2213 38.9621 31.7429 38.0574L32.9892 35.8993V33.4093C32.9892 32.359 33.5541 31.3828 34.4632 30.8611L36.6169 29.6166L37.8597 27.4612C38.3848 26.552 39.3611 25.9907 40.4079 25.9907H42.8978L45.0533 24.7453C45.4999 24.4884 46.0092 24.3516 46.5246 24.3516C47.0401 24.3516 47.5485 24.4884 47.996 24.7461L50.1514 25.9907H52.6414C53.69 25.9907 54.6671 26.5547 55.1896 27.4647L56.4315 29.6175L58.5896 30.862C59.4961 31.3828 60.0592 32.3599 60.0592 33.4093V35.8984L61.3064 38.0565C61.8289 38.9612 61.8289 40.0892 61.3064 40.9984L60.0618 43.152V45.6411C60.0618 46.6906 59.4969 47.6685 58.5878 48.1902L56.4341 49.4338L55.1896 51.591C54.6644 52.4984 53.6891 53.0624 52.6414 53.0624H50.1523L47.996 54.307C47.5529 54.5629 47.0428 54.7006 46.5246 54.7006" fill="#12B76A"/>
<path d="M46.5246 54.7015C46.0092 54.7015 45.5016 54.5656 45.0541 54.3087L42.8978 53.0633H40.4088C39.3611 53.0633 38.3848 52.4984 37.8606 51.5937L36.616 49.4347L34.4597 48.1902C33.5532 47.6694 32.9892 46.6923 32.9892 45.6437V43.1529L31.7447 40.9975C31.2204 40.0875 31.2213 38.9621 31.7429 38.0574L32.9892 35.8993V33.4093C32.9892 32.359 33.5541 31.3828 34.4632 30.8611L36.6169 29.6166L37.8597 27.4612C38.3848 26.552 39.3611 25.9907 40.4079 25.9907H42.8978L45.0533 24.7453C45.4999 24.4884 46.0092 24.3516 46.5246 24.3516C47.0401 24.3516 47.5485 24.4884 47.996 24.7461L50.1514 25.9907H52.6414C53.69 25.9907 54.6671 26.5547 55.1896 27.4647L56.4315 29.6175L58.5896 30.862C59.4961 31.3828 60.0592 32.3599 60.0592 33.4093V35.8984L61.3064 38.0565C61.8289 38.9612 61.8289 40.0892 61.3064 40.9984L60.0618 43.152V45.6411C60.0618 46.6906 59.4969 47.6685 58.5878 48.1902L56.4341 49.4338L55.1896 51.591C54.6644 52.4984 53.6891 53.0624 52.6414 53.0624H50.1523L47.996 54.307C47.5529 54.5629 47.0428 54.7006 46.5246 54.7006" stroke="#33475C" stroke-width="0.778647" stroke-linecap="round" stroke-linejoin="round"/>
<path fill-rule="evenodd" clip-rule="evenodd" d="M44.5634 45.6533C44.2016 45.6533 43.8626 45.5121 43.6075 45.2561L40.0858 41.7343C39.8307 41.4801 39.6895 41.143 39.6895 40.7802C39.6895 40.4183 39.8307 40.0802 40.0849 39.8243C40.6109 39.2982 41.4689 39.2982 41.9958 39.8243L44.5634 42.3919L51.058 35.8974C51.5832 35.3713 52.4411 35.3704 52.968 35.8965C53.4959 36.4234 53.4959 37.2805 52.9689 37.8065L45.5194 45.2561C45.2669 45.5085 44.9192 45.6533 44.5634 45.6533Z" fill="white"/>
</g>
<defs>
<filter id="filter0_dd_140_4012" x="0.984352" y="0.213529" width="91.8809" height="91.0313" filterUnits="userSpaceOnUse" color-interpolation-filters="sRGB">
<feFlood flood-opacity="0" result="BackgroundImageFix"/>
<feColorMatrix in="SourceAlpha" type="matrix" values="0 0 0 0 0 0 0 0 0 0 0 0 0 0 0 0 0 0 127 0" result="hardAlpha"/>
<feOffset/>
<feGaussianBlur stdDeviation="0.389324"/>
<feColorMatrix type="matrix" values="0 0 0 0 0 0 0 0 0 0 0 0 0 0 0 0 0 0 0.4 0"/>
<feBlend mode="normal" in2="BackgroundImageFix" result="effect1_dropShadow_140_4012"/>
<feColorMatrix in="SourceAlpha" type="matrix" values="0 0 0 0 0 0 0 0 0 0 0 0 0 0 0 0 0 0 127 0" result="hardAlpha"/>
<feMorphology radius="4.67188" operator="erode" in="SourceAlpha" result="effect2_dropShadow_140_4012"/>
<feOffset dy="6.22918"/>
<feGaussianBlur stdDeviation="9.34377"/>
<feColorMatrix type="matrix" values="0 0 0 0 0 0 0 0 0 0 0 0 0 0 0 0 0 0 0.05 0"/>
<feBlend mode="normal" in2="effect1_dropShadow_140_4012" result="effect2_dropShadow_140_4012"/>
<feBlend mode="normal" in="SourceGraphic" in2="effect2_dropShadow_140_4012" result="shape"/>
</filter>
</defs>
</svg>
